 http://img834.imageshack.us/img834/41/colombiana2011.jpg

Country.......: USA, France
Genre.........: Thriller, Drama, Adventure, Action
Date release..: 26.07.2011 [World]
Director......: Olivier Megaton
Writers.......: Luc Besson, Robert Mark Kamen
Duration......: 104 min.
More..........: http://www.imdb.com/title/tt1657507
Trailer.......: http://www.imdb.com/video/imdb/vi1627823385
Trailer.......:

Pilot :
A young woman, after witnessing her parents' murder as a child in Bogota, grows up to be a stone-cold assassin.

Cats :
Zoe Saldana   	 ...  	Cataleya
Jordi Molla 	... 	Marco
Lennie James 	... 	Ross
Amandla Stenberg 	... 	Cat 10
Michael Vartan 	... 	Danny Delanay
Cliff Curtis 	... 	Emilio Restrepo
Beto Benites 	... 	Don Luis
Jesse Borrego 	... 	Fabio
Cynthia Addai Robinson 	... 	Alicia
Angel Garnica 	... 	Pepe
Ofelia Medina 	... 	Mama
Callum Blue 	... 	Richard
Sam Douglas 	... 	William Woogard
Graham McTavish 	... 	Head Marshall Warren
Charles Maquignon 	... 	Sergeant Bill Attwood 

Data Technical :
!!! SAMPLE !!!
Audio.....: English
Subtitles.: None
Format                           : AVI
Format/Info                      : Audio Video Interleave
File size                        : 1.37 GiB
Duration                         : 1h 43mn
Overall bit rate                 : 1 889 Kbps
Writing library                  : VirtualDub build 30586/release
Video
ID                               : 0
Format                           : MPEG-4 Visual
Format profile                   : Advanced Simple@L5
Format settings, BVOP            : Yes
Format settings, QPel            : No
Format settings, GMC             : No warppoints
Format settings, Matrix          : Default (MPEG)
Muxing mode                      : Packed bitstream
Codec ID                         : XVID
Codec ID/Hint                    : XviD
Duration                         : 1h 43mn
Bit rate                         : 1 749 Kbps
Width                            : 640 pixels
Height                           : 288 pixels
Display aspect ratio             : 2.222
Frame rate                       : 29.970 fps
Color space                      : YUV
Chroma subsampling               : 4:2:0
Bit depth                        : 8 bits
Scan type                        : Progressive
Bits/(Pixel*Frame)               : 0.317
Stream size                      : 1.27 GiB (93%)
Writing library                  : XviD 64
Audio
ID                               : 1
Format                           : MPEG Audio
Format version                   : Version 1
Format profile                   : Layer 3
Mode                             : Joint stereo
Mode extension                   : MS Stereo
Codec ID                         : 55
Codec ID/Hint                    : MP3
Duration                         : 1h 43mn
Bit rate mode                    : Constant
Bit rate                         : 128 Kbps
Channel(s)                       : 2 channels
Sampling rate                    : 44.1 KHz
Stream size                      : 95.2 MiB (7%)
Alignment                        : Split accross interleaves
Interleave, duration             : 33 ms (1.00 video frame)
Interleave, preload duration     : 500 ms

Screen : 
http://img15.imageshack.us/img15/666/colombiana2011s1.jpg 
http://img853.imageshack.us/img853/2012/colombiana2011s2.jpg 
http://img836.imageshack.us/img836/6282/colombiana2011s3.jpg 
http://img823.imageshack.us/img823/3971/colombiana2011s4.jpg 
http://img13.imageshack.us/img13/5167/colombiana2011s5.jpg